<mxfile host="Electron" agent="Mozilla/5.0 (Windows NT 10.0; Win64; x64) AppleWebKit/537.36 (KHTML, like Gecko) draw.io/24.7.8 Chrome/128.0.6613.36 Electron/32.0.1 Safari/537.36" version="24.7.8">
  <diagram name="PÃ¡gina-1" id="lXBObBvwwERqvelVOEYb">
    <mxGraphModel dx="1687" dy="1181" grid="1" gridSize="10" guides="1" tooltips="1" connect="1" arrows="1" fold="1" page="1" pageScale="1" pageWidth="1169" pageHeight="827" math="0" shadow="0">
      <root>
        <mxCell id="0" />
        <mxCell id="1" parent="0" />
        <mxCell id="NfIZefDXJztFPGfmeGaA-67" value="" style="group;" vertex="1" connectable="0" parent="1">
          <mxGeometry x="160" width="760" height="760" as="geometry" />
        </mxCell>
        <mxCell id="NfIZefDXJztFPGfmeGaA-19" value="7" style="ellipse;whiteSpace=wrap;html=1;aspect=fixed;verticalAlign=top;align=center;horizontal=1;spacingRight=0;spacingLeft=0;spacingTop=0;container=0;" vertex="1" parent="NfIZefDXJztFPGfmeGaA-67">
          <mxGeometry width="760.0000000000001" height="760.0000000000001" as="geometry" />
        </mxCell>
        <mxCell id="NfIZefDXJztFPGfmeGaA-7" value="6" style="ellipse;whiteSpace=wrap;html=1;aspect=fixed;verticalAlign=top;container=0;" vertex="1" parent="NfIZefDXJztFPGfmeGaA-67">
          <mxGeometry x="37.938144329896915" y="38.76288659793815" width="682.0618556701031" height="682.0618556701031" as="geometry" />
        </mxCell>
        <mxCell id="NfIZefDXJztFPGfmeGaA-8" value="5" style="ellipse;whiteSpace=wrap;html=1;aspect=fixed;verticalAlign=top;container=0;" vertex="1" parent="NfIZefDXJztFPGfmeGaA-67">
          <mxGeometry x="78.35051546391755" y="80" width="600.4123711340206" height="600.4123711340206" as="geometry" />
        </mxCell>
        <mxCell id="NfIZefDXJztFPGfmeGaA-5" value="4" style="ellipse;whiteSpace=wrap;html=1;aspect=fixed;verticalAlign=top;container=0;" vertex="1" parent="NfIZefDXJztFPGfmeGaA-67">
          <mxGeometry x="122.88659793814433" y="124.53608247422682" width="511.34020618556707" height="511.34020618556707" as="geometry" />
        </mxCell>
        <mxCell id="NfIZefDXJztFPGfmeGaA-4" value="3" style="ellipse;whiteSpace=wrap;html=1;aspect=fixed;verticalAlign=top;container=0;" vertex="1" parent="NfIZefDXJztFPGfmeGaA-67">
          <mxGeometry x="164.12371134020623" y="165.77319587628867" width="428.86597938144337" height="428.86597938144337" as="geometry" />
        </mxCell>
        <mxCell id="NfIZefDXJztFPGfmeGaA-3" value="2" style="ellipse;whiteSpace=wrap;html=1;aspect=fixed;verticalAlign=top;container=0;" vertex="1" parent="NfIZefDXJztFPGfmeGaA-67">
          <mxGeometry x="209.48453608247425" y="211.13402061855672" width="338.14432989690727" height="338.14432989690727" as="geometry" />
        </mxCell>
        <mxCell id="NfIZefDXJztFPGfmeGaA-2" value="1" style="ellipse;whiteSpace=wrap;html=1;aspect=fixed;verticalAlign=top;container=0;" vertex="1" parent="NfIZefDXJztFPGfmeGaA-67">
          <mxGeometry x="258.9690721649485" y="260.618556701031" width="239.17525773195877" height="239.17525773195877" as="geometry" />
        </mxCell>
        <mxCell id="NfIZefDXJztFPGfmeGaA-16" value="T" style="ellipse;whiteSpace=wrap;html=1;aspect=fixed;verticalAlign=top;container=0;" vertex="1" parent="NfIZefDXJztFPGfmeGaA-67">
          <mxGeometry x="301.03092783505156" y="301.44329896907226" width="157.5257731958763" height="157.5257731958763" as="geometry" />
        </mxCell>
        <mxCell id="NfIZefDXJztFPGfmeGaA-10" value="R" style="ellipse;whiteSpace=wrap;html=1;aspect=fixed;verticalAlign=top;container=0;" vertex="1" parent="NfIZefDXJztFPGfmeGaA-67">
          <mxGeometry x="334.020618556701" y="334.4329896907217" width="91.95876288659797" height="91.95876288659797" as="geometry" />
        </mxCell>
        <mxCell id="NfIZefDXJztFPGfmeGaA-1" value="0" style="ellipse;whiteSpace=wrap;html=1;aspect=fixed;container=0;" vertex="1" parent="NfIZefDXJztFPGfmeGaA-67">
          <mxGeometry x="367.21649484536096" y="367.62886597938143" width="25.567010309278352" height="25.567010309278352" as="geometry" />
        </mxCell>
        <mxCell id="NfIZefDXJztFPGfmeGaA-9" value="&lt;div&gt;5 km&lt;/div&gt;500.000 uu" style="text;html=1;align=center;verticalAlign=middle;whiteSpace=wrap;rounded=0;container=0;" vertex="1" parent="NfIZefDXJztFPGfmeGaA-67">
          <mxGeometry x="342.26804123711344" y="688.0824742268043" width="74.22680412371135" height="24.742268041237118" as="geometry" />
        </mxCell>
        <mxCell id="NfIZefDXJztFPGfmeGaA-11" value="&lt;div&gt;1 km&lt;/div&gt;100.000 uu" style="text;html=1;align=center;verticalAlign=middle;whiteSpace=wrap;rounded=0;container=0;" vertex="1" parent="NfIZefDXJztFPGfmeGaA-67">
          <mxGeometry x="342.680412371134" y="644.6701030927836" width="74.22680412371135" height="24.742268041237118" as="geometry" />
        </mxCell>
        <mxCell id="NfIZefDXJztFPGfmeGaA-12" value="&lt;div&gt;500 m&lt;/div&gt;50.000 uu" style="text;html=1;align=center;verticalAlign=middle;whiteSpace=wrap;rounded=0;container=0;" vertex="1" parent="NfIZefDXJztFPGfmeGaA-67">
          <mxGeometry x="342.680412371134" y="602.1340206185567" width="74.22680412371135" height="24.742268041237118" as="geometry" />
        </mxCell>
        <mxCell id="NfIZefDXJztFPGfmeGaA-13" value="&lt;div&gt;150 m&lt;/div&gt;15.000 uu" style="text;html=1;align=center;verticalAlign=middle;whiteSpace=wrap;rounded=0;container=0;" vertex="1" parent="NfIZefDXJztFPGfmeGaA-67">
          <mxGeometry x="342.680412371134" y="557.896907216495" width="74.22680412371135" height="24.742268041237118" as="geometry" />
        </mxCell>
        <mxCell id="NfIZefDXJztFPGfmeGaA-14" value="&lt;div&gt;50 m&lt;/div&gt;5.000 uu" style="text;html=1;align=center;verticalAlign=middle;whiteSpace=wrap;rounded=0;container=0;" vertex="1" parent="NfIZefDXJztFPGfmeGaA-67">
          <mxGeometry x="342.680412371134" y="510.5360824742269" width="74.22680412371135" height="24.742268041237118" as="geometry" />
        </mxCell>
        <mxCell id="NfIZefDXJztFPGfmeGaA-15" value="&lt;div&gt;5 m&lt;/div&gt;500 uu" style="text;html=1;align=center;verticalAlign=middle;whiteSpace=wrap;rounded=0;container=0;" vertex="1" parent="NfIZefDXJztFPGfmeGaA-67">
          <mxGeometry x="342.680412371134" y="465.0515463917527" width="74.22680412371135" height="24.742268041237118" as="geometry" />
        </mxCell>
        <mxCell id="NfIZefDXJztFPGfmeGaA-17" value="&lt;div&gt;1,5 m&lt;/div&gt;150 uu" style="text;html=1;align=center;verticalAlign=middle;whiteSpace=wrap;rounded=0;container=0;" vertex="1" parent="NfIZefDXJztFPGfmeGaA-67">
          <mxGeometry x="342.8865979381443" y="429.2268041237114" width="74.22680412371135" height="24.742268041237118" as="geometry" />
        </mxCell>
        <mxCell id="NfIZefDXJztFPGfmeGaA-18" value="&lt;div&gt;50 cm&lt;/div&gt;50 uu" style="text;html=1;align=center;verticalAlign=middle;whiteSpace=wrap;rounded=0;container=0;" vertex="1" parent="NfIZefDXJztFPGfmeGaA-67">
          <mxGeometry x="342.8865979381443" y="396.6494845360825" width="74.22680412371135" height="24.742268041237118" as="geometry" />
        </mxCell>
        <mxCell id="NfIZefDXJztFPGfmeGaA-20" value="&lt;div&gt;50 km&lt;/div&gt;5.000.000 uu" style="text;html=1;align=center;verticalAlign=middle;whiteSpace=wrap;rounded=0;container=0;" vertex="1" parent="NfIZefDXJztFPGfmeGaA-67">
          <mxGeometry x="342.889998322179" y="726.9692735034769" width="74.22680412371135" height="24.742268041237118" as="geometry" />
        </mxCell>
        <mxCell id="NfIZefDXJztFPGfmeGaA-68" value="" style="group;" vertex="1" connectable="0" parent="1">
          <mxGeometry y="767" width="1160" height="60" as="geometry" />
        </mxCell>
        <mxCell id="NfIZefDXJztFPGfmeGaA-52" value="0" style="text;html=1;align=center;verticalAlign=middle;whiteSpace=wrap;rounded=0;container=0;" vertex="1" parent="NfIZefDXJztFPGfmeGaA-68">
          <mxGeometry width="9.907163049698088" height="20" as="geometry" />
        </mxCell>
        <mxCell id="NfIZefDXJztFPGfmeGaA-53" value="R" style="text;html=1;align=center;verticalAlign=middle;whiteSpace=wrap;rounded=0;container=0;" vertex="1" parent="NfIZefDXJztFPGfmeGaA-68">
          <mxGeometry x="9.907163049698088" width="9.907163049698088" height="20" as="geometry" />
        </mxCell>
        <mxCell id="NfIZefDXJztFPGfmeGaA-54" value="T" style="text;html=1;align=center;verticalAlign=middle;whiteSpace=wrap;rounded=0;container=0;" vertex="1" parent="NfIZefDXJztFPGfmeGaA-68">
          <mxGeometry x="29.721489149094268" width="9.907163049698088" height="20" as="geometry" />
        </mxCell>
        <mxCell id="NfIZefDXJztFPGfmeGaA-55" value="1" style="text;html=1;align=center;verticalAlign=middle;whiteSpace=wrap;rounded=0;container=0;" vertex="1" parent="NfIZefDXJztFPGfmeGaA-68">
          <mxGeometry x="49.442978298188535" y="-5" width="30" height="30" as="geometry" />
        </mxCell>
        <mxCell id="NfIZefDXJztFPGfmeGaA-56" value="2" style="text;html=1;align=center;verticalAlign=middle;whiteSpace=wrap;rounded=0;container=0;" vertex="1" parent="NfIZefDXJztFPGfmeGaA-68">
          <mxGeometry x="90.0623468019507" y="-5" width="30" height="30" as="geometry" />
        </mxCell>
        <mxCell id="NfIZefDXJztFPGfmeGaA-57" value="3" style="text;html=1;align=center;verticalAlign=middle;whiteSpace=wrap;rounded=0;container=0;" vertex="1" parent="NfIZefDXJztFPGfmeGaA-68">
          <mxGeometry x="138.60744574547132" y="-5" width="30" height="30" as="geometry" />
        </mxCell>
        <mxCell id="NfIZefDXJztFPGfmeGaA-58" value="4" style="text;html=1;align=center;verticalAlign=middle;whiteSpace=wrap;rounded=0;container=0;" vertex="1" parent="NfIZefDXJztFPGfmeGaA-68">
          <mxGeometry x="198.05042404365986" y="-5" width="30" height="30" as="geometry" />
        </mxCell>
        <mxCell id="NfIZefDXJztFPGfmeGaA-59" value="5" style="text;html=1;align=center;verticalAlign=middle;whiteSpace=wrap;rounded=0;container=0;" vertex="1" parent="NfIZefDXJztFPGfmeGaA-68">
          <mxGeometry x="267.4005653915465" y="-5" width="30" height="30" as="geometry" />
        </mxCell>
        <mxCell id="NfIZefDXJztFPGfmeGaA-60" value="6" style="text;html=1;align=center;verticalAlign=middle;whiteSpace=wrap;rounded=0;container=0;" vertex="1" parent="NfIZefDXJztFPGfmeGaA-68">
          <mxGeometry x="346.6578697891312" y="-5" width="30" height="30" as="geometry" />
        </mxCell>
        <mxCell id="NfIZefDXJztFPGfmeGaA-61" value="7" style="text;html=1;align=center;verticalAlign=middle;whiteSpace=wrap;rounded=0;container=0;" vertex="1" parent="NfIZefDXJztFPGfmeGaA-68">
          <mxGeometry x="435.822337236414" y="-5" width="30" height="30" as="geometry" />
        </mxCell>
        <mxCell id="NfIZefDXJztFPGfmeGaA-62" value="8" style="text;html=1;align=center;verticalAlign=middle;whiteSpace=wrap;rounded=0;container=0;" vertex="1" parent="NfIZefDXJztFPGfmeGaA-68">
          <mxGeometry x="524.9868046836968" y="-5" width="30" height="30" as="geometry" />
        </mxCell>
        <mxCell id="NfIZefDXJztFPGfmeGaA-63" value="9" style="text;html=1;align=center;verticalAlign=middle;whiteSpace=wrap;rounded=0;container=0;" vertex="1" parent="NfIZefDXJztFPGfmeGaA-68">
          <mxGeometry x="633.9655982303758" y="-5" width="30" height="30" as="geometry" />
        </mxCell>
        <mxCell id="NfIZefDXJztFPGfmeGaA-64" value="10" style="text;html=1;align=center;verticalAlign=middle;whiteSpace=wrap;rounded=0;container=0;" vertex="1" parent="NfIZefDXJztFPGfmeGaA-68">
          <mxGeometry x="747.8515548267528" y="-5" width="40" height="30" as="geometry" />
        </mxCell>
        <mxCell id="NfIZefDXJztFPGfmeGaA-36" value="0" style="rounded=0;whiteSpace=wrap;html=1;align=left;container=0;" vertex="1" parent="NfIZefDXJztFPGfmeGaA-68">
          <mxGeometry x="0.6142441090812815" y="20" width="1158.1473605097067" height="40" as="geometry" />
        </mxCell>
        <mxCell id="NfIZefDXJztFPGfmeGaA-37" value="25" style="rounded=0;whiteSpace=wrap;html=1;align=left;container=0;" vertex="1" parent="NfIZefDXJztFPGfmeGaA-68">
          <mxGeometry x="10.52140715877937" y="20" width="1147.7448393075235" height="40" as="geometry" />
        </mxCell>
        <mxCell id="NfIZefDXJztFPGfmeGaA-38" value="100" style="rounded=0;whiteSpace=wrap;html=1;align=left;container=0;" vertex="1" parent="NfIZefDXJztFPGfmeGaA-68">
          <mxGeometry x="30.335733258175548" y="20" width="1129.6642667418246" height="40" as="geometry" />
        </mxCell>
        <mxCell id="NfIZefDXJztFPGfmeGaA-39" value="300" style="rounded=0;whiteSpace=wrap;html=1;align=left;container=0;" vertex="1" parent="NfIZefDXJztFPGfmeGaA-68">
          <mxGeometry x="60.05722240726981" y="20" width="1099.4474194402453" height="40" as="geometry" />
        </mxCell>
        <mxCell id="NfIZefDXJztFPGfmeGaA-40" value="2.500" style="rounded=0;whiteSpace=wrap;html=1;align=left;container=0;" vertex="1" parent="NfIZefDXJztFPGfmeGaA-68">
          <mxGeometry x="99.68587460606217" y="20" width="1060.0664463176954" height="40" as="geometry" />
        </mxCell>
        <mxCell id="NfIZefDXJztFPGfmeGaA-41" value="10.000" style="rounded=0;whiteSpace=wrap;html=1;align=left;container=0;" vertex="1" parent="NfIZefDXJztFPGfmeGaA-68">
          <mxGeometry x="149.2216898545526" y="20" width="1010.530631069205" height="40" as="geometry" />
        </mxCell>
        <mxCell id="NfIZefDXJztFPGfmeGaA-42" value="30.000" style="rounded=0;whiteSpace=wrap;html=1;align=left;container=0;" vertex="1" parent="NfIZefDXJztFPGfmeGaA-68">
          <mxGeometry x="208.66466815274114" y="20" width="951.0876527710166" height="40" as="geometry" />
        </mxCell>
        <mxCell id="NfIZefDXJztFPGfmeGaA-43" value="75.000" style="rounded=0;whiteSpace=wrap;html=1;align=left;container=0;" vertex="1" parent="NfIZefDXJztFPGfmeGaA-68">
          <mxGeometry x="278.0148095006278" y="20" width="881.9851904993724" height="40" as="geometry" />
        </mxCell>
        <mxCell id="NfIZefDXJztFPGfmeGaA-44" value="300.000" style="rounded=0;whiteSpace=wrap;html=1;align=left;container=0;" vertex="1" parent="NfIZefDXJztFPGfmeGaA-68">
          <mxGeometry x="357.27211389821247" y="20" width="802.4802070255452" height="40" as="geometry" />
        </mxCell>
        <mxCell id="NfIZefDXJztFPGfmeGaA-45" value="2.500.000" style="rounded=0;whiteSpace=wrap;html=1;align=left;container=0;" vertex="1" parent="NfIZefDXJztFPGfmeGaA-68">
          <mxGeometry x="446.4365813454953" y="20" width="713.3157395782624" height="40" as="geometry" />
        </mxCell>
        <mxCell id="NfIZefDXJztFPGfmeGaA-46" value="25.000.000" style="rounded=0;whiteSpace=wrap;html=1;align=left;container=0;" vertex="1" parent="NfIZefDXJztFPGfmeGaA-68">
          <mxGeometry x="535.6010487927781" y="20" width="624.1512721309796" height="40" as="geometry" />
        </mxCell>
        <mxCell id="NfIZefDXJztFPGfmeGaA-49" value="250.000.000" style="rounded=0;whiteSpace=wrap;html=1;align=left;container=0;" vertex="1" parent="NfIZefDXJztFPGfmeGaA-68">
          <mxGeometry x="644.5798423394571" y="20" width="515.420157660543" height="40" as="geometry" />
        </mxCell>
        <mxCell id="NfIZefDXJztFPGfmeGaA-51" value="2.500.000.000" style="rounded=0;whiteSpace=wrap;html=1;align=left;container=0;" vertex="1" parent="NfIZefDXJztFPGfmeGaA-68">
          <mxGeometry x="763.4657989358342" y="20" width="396.534201064166" height="40" as="geometry" />
        </mxCell>
      </root>
    </mxGraphModel>
  </diagram>
</mxfile>
